<svg id="Réteg_1" data-name="Réteg 1" xmlns="http://www.w3.org/2000/svg" viewBox="0 0 216.89 139.77"><title>space_type_pikto</title><path d="M108.45,33.1a24,24,0,1,0,24,24A24,24,0,0,0,108.45,33.1Zm0,39a15,15,0,1,1,15-15A15,15,0,0,1,108.45,72.08Z"/><path d="M127.29,88.72H89.6a17.74,17.74,0,0,0-17.72,17.72v4.91a55.52,55.52,0,0,0,9,6.5V106.44a8.73,8.73,0,0,1,8.72-8.72h37.69a8.73,8.73,0,0,1,8.72,8.72v11.41a55.52,55.52,0,0,0,9-6.5v-4.91A17.74,17.74,0,0,0,127.29,88.72Z"/><path d="M177.26,80.65a69.61,69.61,0,1,1-118-59.71,69.63,69.63,0,0,1,86.1-9.83,43.14,43.14,0,0,0-2.6,3.7,44.18,44.18,0,0,0-2.18,3.93,60.62,60.62,0,0,0-75,94.28A60.61,60.61,0,0,0,168.37,79.3a42.53,42.53,0,0,0,4.41.91A41.43,41.43,0,0,0,177.26,80.65Z"/><path d="M179.29,0a37.4,37.4,0,0,0-16.58,3.86,37.86,37.86,0,0,0-12.82,10.35,37.12,37.12,0,0,0-2.61,3.69,39.53,39.53,0,0,0-2.15,4,37.76,37.76,0,0,0-2,5.45A37.67,37.67,0,0,0,169,73.75a36,36,0,0,0,4.43,1,36.87,36.87,0,0,0,4.5.44c.47,0,.94,0,1.41,0a37.6,37.6,0,0,0,0-75.2Zm0,66.2a28.63,28.63,0,0,1-28.6-28.6c0-.89.05-1.77.13-2.64a28.07,28.07,0,0,1,2.82-10c.18-.38.38-.75.58-1.11A27.71,27.71,0,0,1,156.74,20,28.59,28.59,0,1,1,179.29,66.2Z"/><polygon points="198.79 33.1 198.79 42.1 183.81 42.1 183.81 57.09 174.81 57.09 174.81 42.1 159.82 42.1 159.82 33.1 174.81 33.1 174.81 18.11 183.81 18.11 183.81 33.1 198.79 33.1"/></svg>