<svg id="Réteg_1" data-name="Réteg 1" xmlns="http://www.w3.org/2000/svg" viewBox="0 0 217.68 139.5"><path d="M108.84,32.83a24,24,0,1,0,24,24A24,24,0,0,0,108.84,32.83Zm0,39a15,15,0,1,1,15-15A15,15,0,0,1,108.84,71.81Z"/><path d="M108.84.28a69.61,69.61,0,1,0,69.61,69.61A69.69,69.69,0,0,0,108.84.28Zm0,130.22a60.61,60.61,0,1,1,60.61-60.61A60.68,60.68,0,0,1,108.84,130.5Z"/><polygon points="156.37 88.47 156.37 97.47 143.39 97.47 143.39 110.46 134.39 110.46 134.39 97.47 121.4 97.47 121.4 88.47 134.39 88.47 134.39 75.48 143.39 75.48 143.39 88.47 156.37 88.47"/><path d="M90,88.45a17.74,17.74,0,0,0-17.72,17.72v4.91a55.15,55.15,0,0,0,9,6.51V106.17A8.73,8.73,0,0,1,90,97.45h26.31v-9Z"/></svg>