<svg id="Réteg_1" data-name="Réteg 1" xmlns="http://www.w3.org/2000/svg" viewBox="0 0 216.89 139.77"><defs><style>.cls-1{fill:none;}</style></defs><title>space_type_pikto</title><path class="cls-1" d="M108.45,41.83a15,15,0,1,0,15,15A15,15,0,0,0,108.45,41.83Z"/><path d="M108.45,32.83a24,24,0,1,0,24,24A24,24,0,0,0,108.45,32.83Zm0,39a15,15,0,1,1,15-15A15,15,0,0,1,108.45,71.8Z"/><path d="M127.29,88.45H89.6a17.74,17.74,0,0,0-17.72,17.72v4.91a56.13,56.13,0,0,0,9,6.5V106.17a8.73,8.73,0,0,1,8.72-8.72h37.69a8.73,8.73,0,0,1,8.72,8.72v11.41a56.13,56.13,0,0,0,9-6.5v-4.91A17.74,17.74,0,0,0,127.29,88.45Z"/><path d="M108.45.27a69.62,69.62,0,1,0,69.61,69.61A69.69,69.69,0,0,0,108.45.27Zm0,130.23a60.62,60.62,0,1,1,60.61-60.62A60.68,60.68,0,0,1,108.45,130.5Z"/></svg>