<svg id="Réteg_1" data-name="Réteg 1" xmlns="http://www.w3.org/2000/svg" viewBox="0 0 139.23 139.77"><defs><style>.cls-1{fill:#fff;}</style></defs><path class="cls-1" d="M89.62,40.38h-40a29.51,29.51,0,0,0,0,59h40a29.51,29.51,0,0,0,0-59Zm0,50h-40a20.51,20.51,0,0,1,0-41h40a20.51,20.51,0,0,1,0,41Z"/><circle class="cls-1" cx="80.43" cy="77.57" r="4.5"/><circle class="cls-1" cx="95.8" cy="62.2" r="4.5"/><polygon class="cls-1" points="56.11 56.38 47.11 56.38 47.11 65.38 38.11 65.38 38.11 74.39 47.11 74.39 47.11 83.39 56.11 83.39 56.11 74.39 65.11 74.39 65.11 65.38 56.11 65.38 56.11 56.38"/></svg>