<svg id="Réteg_1" data-name="Réteg 1" xmlns="http://www.w3.org/2000/svg" viewBox="0 0 885.48 468.98"><defs><style>.cls-1{fill:#0b6073;}.cls-2{fill:#1f9395;}.cls-11,.cls-3{fill:#fff;}.cls-3{opacity:0.2;}.cls-4{fill:#98d0be;}.cls-15,.cls-5{fill:#e8c669;}.cls-6{fill:#c8671b;}.cls-7{fill:#ee9c24;}.cls-8{fill:#bb3f18;}.cls-13,.cls-9{fill:#9e1a16;}.cls-10,.cls-14{fill:#711516;}.cls-12{fill:none;}.cls-13,.cls-14,.cls-15{stroke:#fff;stroke-miterlimit:10;stroke-width:0.25px;}</style></defs><rect class="cls-1" x="87.99" width="54.34" height="54.34" rx="5.72"/><rect class="cls-2" x="148.67" width="54.34" height="54.34" rx="5.72"/><rect class="cls-3" width="81.65" height="54.34" rx="5.72"/><rect class="cls-4" x="209.35" width="54.34" height="54.34" rx="5.72"/><rect class="cls-5" x="270.03" width="54.34" height="54.34" rx="5.72"/><rect class="cls-5" x="330.71" width="54.34" height="54.34" rx="5.72"/><rect class="cls-6" x="391.39" width="54.34" height="54.34" rx="5.72"/><rect class="cls-6" x="452.07" width="54.34" height="54.34" rx="5.72"/><rect class="cls-1" x="136.08" y="121.75" width="54.34" height="54.34" rx="5.72"/><rect class="cls-2" x="196.76" y="121.75" width="54.34" height="54.34" rx="5.72"/><rect class="cls-3" y="121.75" width="129.74" height="54.34" rx="5.72"/><rect class="cls-4" x="257.44" y="121.75" width="54.34" height="54.34" rx="5.72"/><rect class="cls-5" x="318.12" y="121.75" width="54.34" height="54.34" rx="5.72"/><rect class="cls-5" x="378.8" y="121.75" width="54.34" height="54.34" rx="5.72"/><rect class="cls-7" x="257.44" y="182.62" width="357.96" height="54.34" rx="5.72"/><rect class="cls-6" x="439.48" y="121.75" width="54.34" height="54.34" rx="5.72"/><rect class="cls-6" x="500.16" y="121.75" width="54.34" height="54.34" rx="5.72"/><rect class="cls-3" x="560.84" y="121.75" width="54.34" height="54.34" rx="5.72"/><rect class="cls-3" x="621.52" y="121.75" width="54.34" height="54.34" rx="5.72"/><rect class="cls-3" x="682.19" y="121.75" width="54.34" height="54.34" rx="5.72"/><rect class="cls-3" x="742.87" y="121.75" width="54.34" height="54.34" rx="5.72"/><rect class="cls-3" x="803.55" y="121.75" width="81.93" height="54.34" rx="5.72"/><rect class="cls-8" x="512.75" width="54.34" height="54.34" rx="5.72"/><rect class="cls-9" x="573.43" width="54.34" height="54.34" rx="5.72"/><rect class="cls-3" x="694.78" width="54.34" height="54.34" rx="5.72"/><rect class="cls-3" x="755.46" width="54.34" height="54.34" rx="5.72"/><rect class="cls-3" x="816.14" width="69.34" height="54.34" rx="5.72"/><rect class="cls-1" x="104.55" y="60.87" width="54.34" height="54.34" rx="5.72"/><rect class="cls-2" x="165.23" y="60.87" width="54.34" height="54.34" rx="5.72"/><rect class="cls-3" y="60.87" width="98.22" height="54.34" rx="5.72"/><rect class="cls-4" x="225.91" y="60.87" width="54.34" height="54.34" rx="5.72"/><rect class="cls-5" x="286.59" y="60.87" width="54.34" height="54.34" rx="5.72"/><rect class="cls-5" x="347.27" y="60.87" width="54.34" height="54.34" rx="5.72"/><rect class="cls-6" x="407.95" y="60.87" width="54.34" height="54.34" rx="5.72"/><rect class="cls-6" x="468.63" y="60.87" width="54.34" height="54.34" rx="5.72"/><rect class="cls-8" x="529.31" y="60.87" width="54.34" height="54.34" rx="5.72"/><rect class="cls-3" x="650.67" y="60.87" width="54.34" height="54.34" rx="5.72"/><rect class="cls-3" x="711.35" y="60.87" width="54.34" height="54.34" rx="5.72"/><rect class="cls-3" x="772.03" y="60.87" width="113.46" height="54.34" rx="5.72"/><rect class="cls-10" x="634.11" width="54.34" height="54.34" rx="5.72"/><rect class="cls-9" x="589.99" y="60.87" width="54.34" height="54.34" rx="5.72"/><path class="cls-11" d="M122.21,34.1l-1,1.21-2.28-1.73a8.2,8.2,0,0,1-1.77.72,7.71,7.71,0,0,1-2.09.27,6.72,6.72,0,0,1-5.36-2.24A8.62,8.62,0,0,1,108,26.86a8.65,8.65,0,0,1,1.49-5.1A6.4,6.4,0,0,1,115.1,19a6.74,6.74,0,0,1,5.77,2.51,8.12,8.12,0,0,1,1.46,5,10.64,10.64,0,0,1-.35,2.73,7.08,7.08,0,0,1-1.79,3.27Zm-5.73-1.39a2.39,2.39,0,0,0,1-.34l-1.63-1.25,1-1.24,1.92,1.5A5.53,5.53,0,0,0,120,29a9.94,9.94,0,0,0,.33-2.47,6.18,6.18,0,0,0-1.36-4.18,4.61,4.61,0,0,0-3.71-1.58,4.86,4.86,0,0,0-3.77,1.51A6.75,6.75,0,0,0,110.06,27a6.28,6.28,0,0,0,1.34,4.23,4.88,4.88,0,0,0,3.92,1.57A7,7,0,0,0,116.48,32.71Z"/><path class="cls-11" d="M168.65,19.82l2.78,12,3.32-11.95h2.15l3.34,12,2.77-12h2.18l-3.86,14.7h-2.09l-3.4-12.19-3.41,12.19h-2.09l-3.85-14.7Z"/><path class="cls-11" d="M231.11,19.82h10.67v1.8h-8.73v4.47h8.07v1.7h-8.07v5h8.88v1.75H231.11Z"/><path class="cls-11" d="M291.2,19.82h6.68a6.57,6.57,0,0,1,2.73.49,3.48,3.48,0,0,1,2,3.47,3.6,3.6,0,0,1-2.07,3.52,3,3,0,0,1,1.3.92,3.29,3.29,0,0,1,.48,1.85l.07,2a6.27,6.27,0,0,0,.14,1.25,1.21,1.21,0,0,0,.64.9v.33h-2.44a1.65,1.65,0,0,1-.16-.49,10,10,0,0,1-.1-1.16l-.12-2.45a2.07,2.07,0,0,0-1-1.93,4.2,4.2,0,0,0-1.74-.27h-4.41v6.3h-2Zm6.47,6.74a3.71,3.71,0,0,0,2.16-.56,2.35,2.35,0,0,0,.79-2,2.19,2.19,0,0,0-1.11-2.14,3.58,3.58,0,0,0-1.59-.3h-4.73v5Z"/><path class="cls-11" d="M363.84,19.82v1.75h-4.95v13h-2v-13h-4.95V19.82Z"/><path class="cls-11" d="M412,19.82h2.32l4.23,7.07,4.23-7.07h2.34l-5.57,8.78v5.92h-2V28.6Z"/><path class="cls-11" d="M475.44,19.62v9.09a5.27,5.27,0,0,0,.61,2.67,3.18,3.18,0,0,0,3,1.6,3.57,3.57,0,0,0,3.47-1.73,5.51,5.51,0,0,0,.5-2.54V19.62h2v8.26a9.56,9.56,0,0,1-.73,4.18q-1.35,2.65-5.09,2.66t-5.07-2.66a9.56,9.56,0,0,1-.73-4.18V19.62Z"/><path class="cls-11" d="M538.91,19.82h2v14.7h-2Z"/><path class="cls-11" d="M606.3,21.91a8.06,8.06,0,0,1,1.47,5,8.73,8.73,0,0,1-1.68,5.48,6.61,6.61,0,0,1-5.59,2.56,6.71,6.71,0,0,1-5.34-2.24,8.51,8.51,0,0,1-1.73-5.47,8.65,8.65,0,0,1,1.48-5.1,6.41,6.41,0,0,1,5.63-2.73A6.72,6.72,0,0,1,606.3,21.91Zm-1.75,9.37a8.08,8.08,0,0,0,1.17-4.34,6.21,6.21,0,0,0-1.35-4.18,4.62,4.62,0,0,0-3.71-1.58,4.85,4.85,0,0,0-3.73,1.56,6.64,6.64,0,0,0-1.44,4.63,6.72,6.72,0,0,0,1.24,4.12,4.64,4.64,0,0,0,4,1.68A4.16,4.16,0,0,0,604.55,31.28Z"/><path class="cls-11" d="M655.81,19.82h6.58a4.45,4.45,0,0,1,3.15,1.11,4,4,0,0,1,1.2,3.1,4.49,4.49,0,0,1-1.07,3,4,4,0,0,1-3.28,1.28H657.8v6.21h-2Zm7.73,2a4.25,4.25,0,0,0-1.8-.31H657.8v5.1h3.94a3.73,3.73,0,0,0,2.16-.57,2.3,2.3,0,0,0,.83-2A2.22,2.22,0,0,0,663.54,21.84Z"/><path class="cls-11" d="M130.7,80.7H133l5.34,14.7H136.1L134.61,91H128.8l-1.59,4.4h-2ZM134,89.38l-2.23-6.5-2.37,6.5Z"/><path class="cls-11" d="M188.56,90.63a4.23,4.23,0,0,0,.57,2,3.72,3.72,0,0,0,3.36,1.46,5.86,5.86,0,0,0,2-.32,2.24,2.24,0,0,0,1.72-2.22,1.93,1.93,0,0,0-.73-1.71,7.08,7.08,0,0,0-2.31-.88l-1.93-.45a8.24,8.24,0,0,1-2.67-1,3.09,3.09,0,0,1-1.36-2.75,4.27,4.27,0,0,1,1.33-3.25,5.25,5.25,0,0,1,3.78-1.27,6.49,6.49,0,0,1,3.83,1.11A4.08,4.08,0,0,1,197.69,85h-1.87a3.74,3.74,0,0,0-.62-1.81,3.48,3.48,0,0,0-3-1.15,3.3,3.3,0,0,0-2.43.74,2.37,2.37,0,0,0-.74,1.72,1.69,1.69,0,0,0,.87,1.58,12.4,12.4,0,0,0,2.59.8l2,.47a6.05,6.05,0,0,1,2.23.93,3.53,3.53,0,0,1,1.36,3,3.76,3.76,0,0,1-1.73,3.49,7.64,7.64,0,0,1-4,1,5.91,5.91,0,0,1-4.19-1.4,4.77,4.77,0,0,1-1.48-3.77Z"/><path class="cls-11" d="M247.09,80.69H253a5.52,5.52,0,0,1,4.64,2.15,8,8,0,0,1,1.47,5,10,10,0,0,1-.87,4.23A5.36,5.36,0,0,1,253,95.4h-5.86Zm5.48,13a5.29,5.29,0,0,0,1.63-.21,3.56,3.56,0,0,0,1.86-1.5,6.28,6.28,0,0,0,.83-2.28,8.7,8.7,0,0,0,.15-1.54A7.39,7.39,0,0,0,256,83.91a3.92,3.92,0,0,0-3.43-1.51H249.1V93.69Z"/><path class="cls-11" d="M308.66,80.69h10.2v1.8h-8.21V87h7.22v1.75h-7.22V95.4h-2Z"/><path class="cls-11" d="M378.18,81.11a5.2,5.2,0,0,1,2.64,4h-2a3.58,3.58,0,0,0-1.46-2.35,5,5,0,0,0-2.79-.73,4.33,4.33,0,0,0-3.37,1.53,6.66,6.66,0,0,0-1.37,4.56A7.4,7.4,0,0,0,371,92.42a4.13,4.13,0,0,0,3.68,1.65,4.64,4.64,0,0,0,3.23-1.16,4.85,4.85,0,0,0,1.31-3.73h-4.6V87.52h6.45v7.87h-1.28l-.48-1.89A7.52,7.52,0,0,1,377.54,95a6.45,6.45,0,0,1-3.28.74,6.31,6.31,0,0,1-4.42-1.69,8.09,8.09,0,0,1-2-5.83,8.44,8.44,0,0,1,2-5.87,6.23,6.23,0,0,1,4.86-2.08A7.27,7.27,0,0,1,378.18,81.11Z"/><path class="cls-11" d="M429.33,80.69h2v6.08h7.56V80.69h2V95.4h-2V88.52h-7.56V95.4h-2Z"/><path class="cls-11" d="M500,90.82a6.19,6.19,0,0,1-.55,2.89c-.68,1.25-2,1.88-3.89,1.88a4.59,4.59,0,0,1-2.83-.89,3.8,3.8,0,0,1-1.17-3.19V90.46h1.87v1.05a2.62,2.62,0,0,0,.54,1.8,2.11,2.11,0,0,0,1.67.61,2.05,2.05,0,0,0,2.09-1.09,7.11,7.11,0,0,0,.3-2.53V80.5h2Z"/><path class="cls-11" d="M550.37,80.69h2v7.2l7.35-7.2h2.79l-6.29,5.94,6.42,8.77H560L554.71,88l-2.39,2.26V95.4h-2Z"/><path class="cls-11" d="M612.48,80.69h2v13h7.37V95.4h-9.36Z"/><path class="cls-11" d="M157.45,154.62l9-11.3h-8.38v-1.76h10.95v1.72L160,154.52h9.1v1.75H157.45Z"/><path class="cls-11" d="M219.92,156.27h-2.39l5.2-7.54-4.87-7.17h2.48l3.71,5.63,3.68-5.63h2.36l-4.87,7.17,5.11,7.54h-2.46L224,150.22Z"/><path class="cls-11" d="M289.23,142.64a5.24,5.24,0,0,1,1.69,3.34H289a4.1,4.1,0,0,0-1.3-2.25,4.06,4.06,0,0,0-2.72-.83,4.3,4.3,0,0,0-3.44,1.53,7,7,0,0,0-1.31,4.68,6.92,6.92,0,0,0,1.18,4.2,4.11,4.11,0,0,0,3.54,1.6,3.7,3.7,0,0,0,3.29-1.69,6.5,6.5,0,0,0,.9-2.34h1.94a6.64,6.64,0,0,1-1.7,3.89,6.67,6.67,0,0,1-8.93.34q-2.26-2.06-2.27-6.34a8.15,8.15,0,0,1,1.71-5.34,6.15,6.15,0,0,1,5.07-2.26A5.94,5.94,0,0,1,289.23,142.64Z"/><path class="cls-11" d="M341.08,141.56l4.22,12.53,4.17-12.53h2.24l-5.37,14.71h-2.11l-5.36-14.71Z"/><path class="cls-11" d="M400.26,141.56h6.36a4.22,4.22,0,0,1,3.7,1.55,3.51,3.51,0,0,1,.65,2.1,3.33,3.33,0,0,1-.79,2.28,4,4,0,0,1-1.19.86,5.11,5.11,0,0,1,1.7,1,3.53,3.53,0,0,1,1,2.65,4.09,4.09,0,0,1-.9,2.58,5,5,0,0,1-4.26,1.72h-6.26Zm5.62,6.22a4.59,4.59,0,0,0,2-.35,2,2,0,0,0,1.11-2,1.9,1.9,0,0,0-1.18-1.94,5.3,5.3,0,0,0-2-.28h-3.59v4.55Zm.67,6.79a3.11,3.11,0,0,0,2.64-1.06,2.67,2.67,0,0,0,.49-1.63,2.16,2.16,0,0,0-1.44-2.18,5.66,5.66,0,0,0-2-.31h-4v5.18Z"/><path class="cls-11" d="M460.86,141.56h2.34l7.34,11.89V141.56h1.9v14.71H470.2l-7.44-11.87v11.87h-1.9Z"/><path class="cls-11" d="M520.27,141.56h2.85L527.35,154l4.2-12.44h2.84v14.71h-1.91v-8.68c0-.3,0-.8,0-1.49s0-1.44,0-2.23l-4.19,12.4h-2l-4.24-12.4v.45c0,.36,0,.91,0,1.64s0,1.28,0,1.63v8.68h-1.9Z"/><path class="cls-12" d="M788.22,307v82.9a70,70,0,0,1-140.1,0V355.29a19.29,19.29,0,0,0,20.82,0v17.17h9V282a19.24,19.24,0,0,0,20.82,0v49.11h9V265.77a19.24,19.24,0,0,0,20.82,0v65.34h9V282a19.24,19.24,0,0,0,20.82,0v49.11h9V307a19.24,19.24,0,0,0,20.82,0Z"/><path class="cls-8" d="M728.58,229.2v20.22a10.41,10.41,0,0,1-20.82,0V229.2a10.41,10.41,0,0,1,20.82,0Z"/><path class="cls-13" d="M758.4,245.43v20.24a10.41,10.41,0,0,1-20.82,0V245.43a10.41,10.41,0,1,1,20.82,0Z"/><path class="cls-14" d="M788.22,270.45v20.23a10.41,10.41,0,0,1-20.82,0V270.45a10.41,10.41,0,0,1,20.82,0Z"/><path class="cls-6" d="M698.76,245.43v20.22a10.41,10.41,0,0,1-20.82,0V245.43a10.41,10.41,0,0,1,20.82,0Z"/><path class="cls-7" d="M668.94,318.71v20.22a10.41,10.41,0,0,1-20.82,0V308.3h10.41A10.42,10.42,0,0,1,668.94,318.71Z"/><path class="cls-3" d="M777.81,251a19.3,19.3,0,0,0-10.41,3.05v-8.66a19.38,19.38,0,0,0-29.83-16.35,19.4,19.4,0,0,0-38.8,0,19.38,19.38,0,0,0-29.83,16.35v56.93a19.31,19.31,0,0,0-10.41-3.06H639.12v90.62a79.05,79.05,0,0,0,158.1,0V270.45A19.44,19.44,0,0,0,777.81,251Zm10.41,39.64a10.41,10.41,0,0,1-20.82,0V270.45a10.41,10.41,0,0,1,20.82,0Zm-50.64-45.25a10.41,10.41,0,1,1,20.82,0v20.24a10.41,10.41,0,0,1-20.82,0ZM707.76,229.2a10.41,10.41,0,0,1,20.82,0v20.22a10.41,10.41,0,0,1-20.82,0Zm-29.82,16.23a10.41,10.41,0,0,1,20.82,0v20.22a10.41,10.41,0,0,1-20.82,0ZM648.12,308.3h10.41a10.42,10.42,0,0,1,10.41,10.41v20.22a10.41,10.41,0,0,1-20.82,0Zm140.1,81.62a70,70,0,0,1-140.1,0V355.29a19.29,19.29,0,0,0,20.82,0v17.17h9V282a19.24,19.24,0,0,0,20.82,0v49.11h9V265.77a19.24,19.24,0,0,0,20.82,0v65.34h9V282a19.24,19.24,0,0,0,20.82,0v49.11h9V307a19.24,19.24,0,0,0,20.82,0Z"/><path class="cls-12" d="M237.36,355.29v34.64a70,70,0,1,1-140.09,0V307a19.29,19.29,0,0,0,20.82,0v24.08h9V282a19.27,19.27,0,0,0,20.81,0v49.1h9V265.78a19.29,19.29,0,0,0,20.82,0v65.33h9V282a19.29,19.29,0,0,0,20.82,0v90.46h9V355.29a19.24,19.24,0,0,0,20.82,0Z"/><path class="cls-4" d="M177.72,229.21v20.21a10.41,10.41,0,1,1-20.82,0V229.21a10.41,10.41,0,1,1,20.82,0Z"/><path class="cls-2" d="M147.9,245.44v20.21a10.41,10.41,0,0,1-20.81,0V245.44h0a10.41,10.41,0,1,1,20.82,0Z"/><path class="cls-1" d="M118.08,270.46v20.21a10.41,10.41,0,1,1-20.81,0V270.46a10.41,10.41,0,1,1,20.81,0Z"/><path class="cls-15" d="M207.54,245.44v20.21a10.41,10.41,0,1,1-20.82,0V245.44a10.41,10.41,0,0,1,20.82,0Z"/><path class="cls-7" d="M237.36,308.31v30.63a10.41,10.41,0,0,1-20.82,0V318.72A10.42,10.42,0,0,1,227,308.31Z"/><path class="cls-3" d="M227,299.31a19.25,19.25,0,0,0-10.41,3.06V245.44A19.42,19.42,0,0,0,197.13,226a19.23,19.23,0,0,0-10.41,3.06,19.41,19.41,0,0,0-38.81,0A19.23,19.23,0,0,0,137.49,226a19.43,19.43,0,0,0-19.41,19.41v8.66a19.38,19.38,0,0,0-29.81,16.36V389.93a79,79,0,1,0,158.09,0V299.31Zm10.41,39.63a10.41,10.41,0,0,1-20.82,0V318.72A10.42,10.42,0,0,1,227,308.31h10.41Zm-50.64-93.5a10.41,10.41,0,0,1,20.82,0v20.21a10.41,10.41,0,1,1-20.82,0ZM156.9,229.21a10.41,10.41,0,1,1,20.82,0v20.21a10.41,10.41,0,1,1-20.82,0ZM137.49,235a10.42,10.42,0,0,1,10.41,10.41v20.21a10.41,10.41,0,0,1-20.81,0V245.44h0A10.42,10.42,0,0,1,137.49,235ZM97.27,270.46a10.41,10.41,0,1,1,20.81,0v20.21a10.41,10.41,0,1,1-20.81,0ZM237.36,389.93a70,70,0,1,1-140.09,0V307a19.29,19.29,0,0,0,20.82,0v24.08h9V282a19.27,19.27,0,0,0,20.81,0v49.1h9V265.78a19.29,19.29,0,0,0,20.82,0v65.33h9V282a19.29,19.29,0,0,0,20.82,0v90.46h9V355.29a19.24,19.24,0,0,0,20.82,0Z"/></svg>