<svg id="Réteg_1" data-name="Réteg 1" xmlns="http://www.w3.org/2000/svg" viewBox="0 0 139.23 139.77"><defs><style>.cls-1{fill:#fff;}</style></defs><path class="cls-1" d="M110.53,41.72a29.54,29.54,0,0,0-40.65-1.15,29.52,29.52,0,0,0-40.64,1.15c-11.41,11.48-10.93,30.67.52,42.11l2.42,2.43,9.19,9.19,15.3,15.3.92.92.11.1a17.42,17.42,0,0,0,24.37,0l.11-.1.92-.92,15.3-15.3,9.19-9.19L110,83.83C121.46,72.39,121.94,53.19,110.53,41.72Zm-6.16,35c-.09.09-.17.2-.27.29l-6.5,6.51L75.81,105.3l0,.06a8.41,8.41,0,0,1-11.75,0L64,105.3,42.17,83.52,35.67,77c-.1-.09-.18-.2-.27-.29A20.49,20.49,0,0,1,63.46,46.93c.41.35.82.7,1.2,1.09l5.22,5.22L75.11,48c.38-.39.79-.74,1.2-1.09a20.49,20.49,0,0,1,28.06,29.79Z"/></svg>