<svg id="Réteg_1" data-name="Réteg 1" xmlns="http://www.w3.org/2000/svg" viewBox="0 0 216.89 139.77"><title>space_type_pikto</title><path d="M65.76,35.06l-.12.16v-.16Z"/><path d="M108.44.27a69.62,69.62,0,1,0,69.62,69.61A69.69,69.69,0,0,0,108.44.27Zm0,130.23a60.62,60.62,0,1,1,60.62-60.62A60.68,60.68,0,0,1,108.44,130.5Z"/><path d="M145.52,91.28a42.56,42.56,0,0,1-26,20,43.06,43.06,0,0,1-11.16,1.48,42.88,42.88,0,0,1-41.08-31L76,79.21a33.81,33.81,0,1,0,5.37-29.5h8v9H65.64V35.22l.12-.16h8.88v8.56a42.81,42.81,0,0,1,70.88,47.66Z"/></svg>