<svg id="Réteg_1" data-name="Réteg 1" xmlns="http://www.w3.org/2000/svg" viewBox="0 0 139.22 139.23"><defs><style>.cls-1{fill:#fff;}</style></defs><path class="cls-1" d="M103.06,96.7l-6.37,6.36L69.61,76,42.53,103.06,36.16,96.7,63.25,69.62,36.16,42.53l6.37-6.36L69.61,63.25,96.69,36.17l6.37,6.36L76,69.62Z"/><path class="cls-1" d="M69.61,0a69.62,69.62,0,1,0,69.61,69.62A69.69,69.69,0,0,0,69.61,0Zm0,130.23a60.62,60.62,0,1,1,60.61-60.61A60.68,60.68,0,0,1,69.61,130.23Z"/><polygon class="cls-1" points="75.98 69.62 103.06 96.7 96.69 103.06 69.61 75.98 42.53 103.06 36.16 96.7 63.25 69.62 36.16 42.53 42.53 36.17 69.61 63.25 96.69 36.17 103.06 42.53 75.98 69.62"/></svg>